<?xml version="1.0" standalone="no"?>
<!DOCTYPE svg PUBLIC "-//W3C//DTD SVG 20010904//EN"
 "http://www.w3.org/TR/2001/REC-SVG-20010904/DTD/svg10.dtd">
<svg version="1.0" xmlns="http://www.w3.org/2000/svg"
 width="3264.000000pt" height="3264.000000pt" viewBox="0 0 3264.000000 3264.000000"
 preserveAspectRatio="xMidYMid meet">

<g transform="translate(0.000000,3264.000000) scale(0.100000,-0.100000)"
fill="#000000" stroke="none">
<path d="M7636 24622 c1469 -2862 3322 -5762 5443 -8517 126 -163 158 -212
149 -221 -18 -15 -616 -359 -1048 -601 -3260 -1830 -6815 -3439 -10560 -4780
-222 -79 -409 -147 -414 -151 -17 -10 1244 -425 2084 -686 1458 -452 3124
-920 4480 -1256 l336 -84 399 214 c2645 1411 5115 2924 7413 4538 95 67 177
122 181 122 5 0 85 -55 177 -122 2371 -1709 4826 -3252 7561 -4751 l192 -105
453 108 c2062 493 4033 1041 6028 1677 234 74 430 138 437 142 7 3 -137 62
-320 130 -3772 1402 -7323 3063 -10602 4961 -419 242 -1035 609 -1035 615 0 3
85 112 188 243 1855 2344 3488 4764 4889 7242 307 543 780 1417 771 1425 -2 2
-80 -18 -173 -46 -1296 -381 -2624 -720 -3848 -980 l-247 -53 -212 -290
c-1180 -1618 -2491 -3214 -3906 -4754 -173 -188 -318 -341 -322 -340 -4 2
-149 161 -321 353 -1397 1560 -2650 3125 -3816 4765 l-231 325 -194 44 c-865
194 -1816 438 -2743 703 -478 136 -1070 313 -1283 383 l-43 14 137 -267z"/>
</g>
</svg>
